<svg version="1.1" preserveAspectRatio="none" xmlns="http://www.w3.org/2000/svg" width="500" height="500" viewBox="0 0 500 500"><rect width="100%" height="100%" fill="#0A0A0A" fill-opacity="1"/><svg viewBox="57.3715 167.8858 320.9144 180" width="333" height="186.77877963718672" x="83.5px" y="156.6106px" xmlns="http://www.w3.org/2000/svg" xmlns:xlink="http://www.w3.org/1999/xlink" preserveAspectRatio="none"><defs></defs><style>.companyName {fill:#E9E9E9;fill-opacity:1;}.icon2 {fill:#7065EF;fill-opacity:1;}.icon3 {fill:#C4C4C4;fill-opacity:1;}.icon3-str {stroke:#C4C4C4;stroke-opacity:1;}.shape {fill:#28208C;fill-opacity:1;}</style><g opacity="1" transform="rotate(0 82.36 167.8858)">
<svg width="270.9374" height="180" x="82.36" y="167.8858" version="1.1" preserveAspectRatio="none" viewBox="4.200999736785889 21.96699905395508 89.02999114990234 59.14799880981445">
  <g transform="matrix(1 0 0 1 0 0)" class="shape"><g><circle cx="46.796" cy="22.734" r="0.767"></circle><circle cx="46.796" cy="26.58" r="0.886"></circle><circle cx="46.796" cy="30.425" r="1.004"></circle><circle cx="46.797" cy="34.271" r="1.12"></circle><circle cx="46.796" cy="38.079" r="1.24"></circle><circle cx="46.797" cy="41.963" r="1.356"></circle><circle cx="46.797" cy="45.809" r="1.476"></circle><circle cx="43.004" cy="22.734" r="0.767"></circle><circle cx="43.004" cy="26.58" r="0.886"></circle><circle cx="43.004" cy="30.425" r="1.004"></circle><circle cx="43.004" cy="34.271" r="1.12"></circle><circle cx="43.004" cy="38.079" r="1.24"></circle><circle cx="43.004" cy="41.963" r="1.356"></circle><circle cx="43.004" cy="80.348" r="0.767"></circle><circle cx="43.004" cy="76.57" r="0.886"></circle><circle cx="43.004" cy="72.723" r="1.003"></circle><circle cx="43.004" cy="68.876" r="1.121"></circle><circle cx="43.004" cy="65.031" r="1.239"></circle><circle cx="43.004" cy="61.186" r="1.356"></circle><circle cx="46.796" cy="80.348" r="0.767"></circle><circle cx="46.796" cy="76.57" r="0.886"></circle><circle cx="46.796" cy="72.723" r="1.003"></circle><circle cx="46.797" cy="68.876" r="1.121"></circle><circle cx="46.796" cy="65.031" r="1.239"></circle><circle cx="46.797" cy="61.186" r="1.356"></circle><circle cx="43.004" cy="45.809" r="1.476"></circle><circle cx="46.797" cy="49.447" r="1.476"></circle><circle cx="43.004" cy="49.447" r="1.476"></circle><circle cx="46.797" cy="53.083" r="1.475"></circle><circle cx="43.004" cy="53.083" r="1.475"></circle><circle cx="46.797" cy="57.024" r="1.475"></circle><circle cx="50.594" cy="22.734" r="0.767"></circle><circle cx="50.591" cy="26.58" r="0.886"></circle><circle cx="50.586" cy="30.425" r="1.004"></circle><circle cx="50.582" cy="34.271" r="1.12"></circle><circle cx="50.578" cy="38.079" r="1.24"></circle><circle cx="50.573" cy="41.963" r="1.356"></circle><circle cx="50.57" cy="45.809" r="1.476"></circle><circle cx="50.594" cy="80.348" r="0.767"></circle><circle cx="50.591" cy="76.57" r="0.886"></circle><circle cx="50.586" cy="72.723" r="1.003"></circle><circle cx="50.582" cy="68.876" r="1.121"></circle><circle cx="50.578" cy="65.031" r="1.239"></circle><circle cx="50.573" cy="61.186" r="1.356"></circle><circle cx="50.57" cy="49.447" r="1.476"></circle><circle cx="50.57" cy="53.083" r="1.475"></circle><circle cx="50.57" cy="57.024" r="1.475"></circle><circle cx="54.53" cy="76.57" r="0.886"></circle><circle cx="54.525" cy="72.723" r="1.003"></circle><circle cx="54.522" cy="68.876" r="1.121"></circle><circle cx="54.52" cy="65.031" r="1.239"></circle><circle cx="58.309" cy="49.571" r="1.24"></circle><circle cx="62.145" cy="49.571" r="1.144"></circle><circle cx="65.983" cy="49.571" r="1.049"></circle><circle cx="69.821" cy="49.571" r="0.954"></circle><circle cx="73.659" cy="49.571" r="0.859"></circle><circle cx="77.497" cy="49.571" r="0.763"></circle><circle cx="81.334" cy="49.571" r="0.668"></circle><circle cx="85.172" cy="49.571" r="0.573"></circle><circle cx="89.01" cy="49.571" r="0.479"></circle><circle cx="92.848" cy="49.571" r="0.383"></circle><path d="M35.535,52.165c0.684,0,1.239,0.553,1.239,1.238s-0.556,1.24-1.239,1.24s-1.238-0.555-1.238-1.24   C34.297,52.722,34.852,52.165,35.535,52.165z"></path><circle cx="31.698" cy="53.403" r="1.144"></circle><circle cx="27.713" cy="53.403" r="0.764"></circle><circle cx="23.876" cy="53.403" r="0.668"></circle><circle cx="20.038" cy="53.403" r="0.573"></circle><circle cx="16.2" cy="53.403" r="0.479"></circle><circle cx="12.363" cy="53.403" r="0.383"></circle><circle cx="58.356" cy="57.149" r="1.144"></circle><circle cx="62.194" cy="57.149" r="1.049"></circle><circle cx="66.032" cy="57.149" r="0.953"></circle><circle cx="69.87" cy="57.149" r="0.858"></circle><circle cx="73.707" cy="57.149" r="0.763"></circle><circle cx="77.545" cy="57.149" r="0.669"></circle><circle cx="81.383" cy="57.149" r="0.572"></circle><circle cx="85.221" cy="57.149" r="0.479"></circle><circle cx="89.058" cy="57.149" r="0.383"></circle><circle cx="58.356" cy="60.788" r="1.144"></circle><circle cx="62.194" cy="60.788" r="1.049"></circle><circle cx="66.032" cy="60.788" r="0.953"></circle><path d="M70.729,60.788c0,0.473-0.384,0.857-0.859,0.857c-0.474,0-0.857-0.385-0.857-0.857c0-0.477,0.384-0.859,0.857-0.859   C70.345,59.929,70.729,60.312,70.729,60.788z"></path><circle cx="73.707" cy="60.788" r="0.763"></circle><circle cx="77.545" cy="60.788" r="0.669"></circle><circle cx="81.383" cy="60.788" r="0.572"></circle><circle cx="85.221" cy="60.788" r="0.479"></circle><circle cx="89.058" cy="60.788" r="0.383"></circle><circle cx="58.449" cy="65.032" r="0.668"></circle><circle cx="62.286" cy="65.032" r="0.573"></circle><circle cx="66.124" cy="65.032" r="0.477"></circle><circle cx="69.963" cy="65.031" r="0.384"></circle><circle cx="58.449" cy="68.972" r="0.668"></circle><circle cx="62.286" cy="68.972" r="0.573"></circle><circle cx="66.124" cy="68.972" r="0.477"></circle><circle cx="69.963" cy="68.973" r="0.382"></circle><circle cx="58.449" cy="72.761" r="0.668"></circle><circle cx="62.286" cy="72.761" r="0.573"></circle><circle cx="66.124" cy="72.761" r="0.477"></circle><circle cx="69.963" cy="72.762" r="0.382"></circle><path d="M59.117,76.548c0,0.369-0.3,0.67-0.669,0.67s-0.668-0.301-0.668-0.67c0-0.367,0.299-0.666,0.668-0.666   S59.117,76.181,59.117,76.548z"></path><path d="M62.858,76.548c0,0.318-0.255,0.576-0.572,0.576c-0.316,0-0.573-0.258-0.573-0.576c0-0.314,0.257-0.57,0.573-0.57   C62.604,75.978,62.858,76.233,62.858,76.548z"></path><path d="M66.601,76.548c0,0.264-0.212,0.48-0.478,0.48c-0.263,0-0.477-0.217-0.477-0.48c0-0.262,0.214-0.477,0.477-0.477   C66.389,76.071,66.601,76.286,66.601,76.548z"></path><circle cx="39.236" cy="80.348" r="0.767"></circle><circle cx="35.301" cy="80.349" r="0.573"></circle><circle cx="31.464" cy="80.349" r="0.478"></circle><circle cx="27.627" cy="80.349" r="0.383"></circle><circle cx="58.309" cy="53.209" r="1.239"></circle><circle cx="62.145" cy="53.21" r="1.144"></circle><circle cx="65.983" cy="53.21" r="1.049"></circle><circle cx="69.821" cy="53.21" r="0.954"></circle><circle cx="73.659" cy="53.21" r="0.859"></circle><circle cx="77.497" cy="53.21" r="0.763"></circle><circle cx="81.334" cy="53.21" r="0.668"></circle><circle cx="85.172" cy="53.21" r="0.573"></circle><circle cx="89.01" cy="53.21" r="0.479"></circle><circle cx="54.514" cy="61.186" r="1.356"></circle><circle cx="54.511" cy="49.447" r="1.476"></circle><circle cx="58.309" cy="45.783" r="1.239"></circle><circle cx="62.145" cy="45.782" r="1.144"></circle><circle cx="65.983" cy="45.782" r="1.049"></circle><circle cx="69.821" cy="45.782" r="0.954"></circle><circle cx="73.659" cy="45.782" r="0.859"></circle><circle cx="77.497" cy="45.782" r="0.763"></circle><path d="M82.002,45.782c0,0.369-0.299,0.67-0.667,0.67c-0.369,0-0.669-0.301-0.669-0.67c0-0.367,0.3-0.668,0.669-0.668   C81.703,45.114,82.002,45.415,82.002,45.782z"></path><circle cx="85.172" cy="45.782" r="0.573"></circle><circle cx="89.01" cy="45.782" r="0.479"></circle><circle cx="92.848" cy="45.782" r="0.383"></circle><circle cx="35.441" cy="45.632" r="0.954"></circle><circle cx="31.604" cy="45.632" r="0.858"></circle><circle cx="27.766" cy="45.632" r="0.764"></circle><circle cx="23.928" cy="45.632" r="0.668"></circle><circle cx="20.09" cy="45.632" r="0.573"></circle><circle cx="16.252" cy="45.632" r="0.478"></circle><circle cx="12.414" cy="45.631" r="0.382"></circle><circle cx="35.368" cy="30.323" r="0.574"></circle><circle cx="31.529" cy="30.323" r="0.479"></circle><circle cx="27.692" cy="30.323" r="0.383"></circle><circle cx="35.368" cy="34.265" r="0.689"></circle><circle cx="31.529" cy="34.265" r="0.479"></circle><circle cx="27.692" cy="34.265" r="0.383"></circle><circle cx="35.463" cy="26.687" r="0.478"></circle><path d="M54.52,43.233c-0.686,0-1.24-0.555-1.24-1.24c0-0.682,0.555-1.238,1.24-1.238c0.683,0,1.237,0.557,1.237,1.238   C55.757,42.679,55.202,43.233,54.52,43.233z"></path><circle cx="58.356" cy="41.993" r="1.144"></circle><circle cx="62.194" cy="41.993" r="1.049"></circle><circle cx="54.52" cy="38.079" r="1.24"></circle><circle cx="58.356" cy="38.079" r="1.144"></circle><circle cx="62.194" cy="38.079" r="1.049"></circle><circle cx="66.032" cy="41.993" r="0.953"></circle><path d="M70.729,41.993c0,0.473-0.384,0.861-0.859,0.861c-0.474,0-0.857-0.389-0.857-0.861s0.384-0.859,0.857-0.859   C70.345,41.134,70.729,41.521,70.729,41.993z"></path><circle cx="54.464" cy="34.265" r="1.049"></circle><circle cx="58.302" cy="34.265" r="0.954"></circle><circle cx="62.14" cy="34.265" r="0.859"></circle><circle cx="73.707" cy="41.993" r="0.763"></circle><circle cx="77.545" cy="41.993" r="0.669"></circle><circle cx="66.027" cy="38.079" r="0.667"></circle><circle cx="81.383" cy="41.993" r="0.572"></circle><circle cx="69.864" cy="38.079" r="0.573"></circle><circle cx="85.221" cy="41.993" r="0.479"></circle><circle cx="89.058" cy="41.995" r="0.383"></circle><circle cx="73.6" cy="38.079" r="0.383"></circle><circle cx="35.251" cy="38.079" r="1.144"></circle><circle cx="31.413" cy="38.079" r="1.049"></circle><circle cx="27.58" cy="38.079" r="0.668"></circle><circle cx="23.743" cy="38.079" r="0.573"></circle><circle cx="20.008" cy="38.079" r="0.383"></circle><circle cx="35.251" cy="42.019" r="1.144"></circle><circle cx="31.413" cy="42.019" r="1.049"></circle><circle cx="27.58" cy="42.019" r="0.668"></circle><circle cx="23.743" cy="42.019" r="0.573"></circle><circle cx="20.008" cy="42.021" r="0.383"></circle><circle cx="54.616" cy="30.349" r="1.048"></circle><path d="M59.117,30.349c0,0.369-0.3,0.67-0.669,0.67s-0.668-0.301-0.668-0.67c0-0.367,0.299-0.668,0.668-0.668   S59.117,29.981,59.117,30.349z"></path><circle cx="62.286" cy="30.349" r="0.573"></circle><circle cx="66.021" cy="30.35" r="0.384"></circle><circle cx="54.405" cy="26.712" r="0.573"></circle><circle cx="58.141" cy="26.712" r="0.383"></circle><circle cx="54.511" cy="45.658" r="1.476"></circle><circle cx="54.511" cy="53.083" r="1.475"></circle><circle cx="54.511" cy="57.024" r="1.475"></circle><circle cx="43.004" cy="57.024" r="1.475"></circle><circle cx="39.237" cy="26.58" r="0.886"></circle><circle cx="39.237" cy="30.425" r="1.004"></circle><circle cx="35.368" cy="76.399" r="0.574"></circle><circle cx="31.529" cy="76.399" r="0.479"></circle><circle cx="27.692" cy="76.397" r="0.383"></circle><circle cx="39.237" cy="76.5" r="1.003"></circle><circle cx="39.237" cy="34.271" r="1.12"></circle><circle cx="39.237" cy="38.079" r="1.24"></circle><path d="M34.107,72.329c0-0.629,0.512-1.143,1.143-1.143c0.633,0,1.146,0.514,1.146,1.143c0,0.635-0.513,1.146-1.146,1.146   C34.619,73.476,34.107,72.964,34.107,72.329z"></path><path d="M30.364,72.329c0-0.576,0.47-1.047,1.049-1.047c0.58,0,1.049,0.471,1.049,1.047c0,0.584-0.469,1.053-1.049,1.053   C30.834,73.382,30.364,72.913,30.364,72.329z"></path><path d="M26.912,72.329c0-0.365,0.301-0.666,0.669-0.666c0.369,0,0.667,0.301,0.667,0.666c0,0.371-0.298,0.67-0.667,0.67   C27.213,72.999,26.912,72.7,26.912,72.329z"></path><path d="M23.17,72.329c0-0.314,0.257-0.57,0.573-0.57s0.572,0.256,0.572,0.57c0,0.318-0.256,0.574-0.572,0.574   S23.17,72.647,23.17,72.329z"></path><path d="M20.008,71.948c0.212,0,0.384,0.17,0.384,0.381c0,0.215-0.172,0.385-0.384,0.385c-0.21,0-0.383-0.17-0.383-0.385   C19.625,72.118,19.798,71.948,20.008,71.948z"></path><path d="M39.237,71.093c-0.687,0-1.24,0.553-1.24,1.236c0,0.688,0.554,1.24,1.24,1.24c0.684,0,1.238-0.553,1.238-1.24   C40.476,71.646,39.921,71.093,39.237,71.093z"></path><circle cx="39.237" cy="41.963" r="1.356"></circle><circle cx="35.251" cy="49.446" r="1.144"></circle><circle cx="31.413" cy="49.446" r="1.049"></circle><circle cx="27.58" cy="49.446" r="0.668"></circle><circle cx="23.743" cy="49.446" r="0.573"></circle><circle cx="20.008" cy="49.446" r="0.383"></circle><path d="M39.237,48.032c-0.751,0-1.357,0.609-1.357,1.359c0,0.746,0.606,1.355,1.357,1.355c0.748,0,1.356-0.609,1.356-1.355   C40.594,48.642,39.985,48.032,39.237,48.032z"></path><circle cx="39.237" cy="45.809" r="1.476"></circle><circle cx="39.237" cy="53.404" r="1.474"></circle><circle cx="35.535" cy="57.193" r="1.239"></circle><circle cx="31.698" cy="57.192" r="1.144"></circle><circle cx="27.713" cy="57.192" r="0.764"></circle><circle cx="23.876" cy="57.192" r="0.668"></circle><circle cx="20.038" cy="57.192" r="0.573"></circle><circle cx="16.2" cy="57.192" r="0.479"></circle><circle cx="12.363" cy="57.193" r="0.382"></circle><circle cx="8.422" cy="57.191" r="0.317"></circle><circle cx="4.481" cy="57.193" r="0.28"></circle><circle cx="39.237" cy="57.192" r="1.475"></circle><circle cx="35.535" cy="60.981" r="1.238"></circle><circle cx="31.698" cy="60.981" r="1.144"></circle><path d="M26.949,60.981c0-0.422,0.343-0.762,0.766-0.762c0.42,0,0.762,0.34,0.762,0.762c0,0.424-0.342,0.764-0.762,0.764   C27.292,61.745,26.949,61.405,26.949,60.981z"></path><path d="M23.208,60.983c0-0.369,0.299-0.67,0.668-0.67s0.669,0.299,0.669,0.67c-0.001,0.367-0.3,0.666-0.669,0.666   S23.208,61.351,23.208,60.983z"></path><circle cx="20.038" cy="60.983" r="0.573"></circle><circle cx="16.2" cy="60.981" r="0.479"></circle><circle cx="12.363" cy="60.982" r="0.382"></circle><circle cx="8.422" cy="60.982" r="0.317"></circle><circle cx="4.481" cy="60.982" r="0.28"></circle><circle cx="73.796" cy="65.074" r="0.28"></circle><circle cx="73.796" cy="68.862" r="0.279"></circle><circle cx="39.236" cy="64.923" r="1.238"></circle><circle cx="35.487" cy="64.923" r="1.144"></circle><circle cx="31.503" cy="64.923" r="0.764"></circle><circle cx="27.665" cy="64.923" r="0.669"></circle><circle cx="23.828" cy="64.923" r="0.574"></circle><circle cx="19.989" cy="64.923" r="0.478"></circle><circle cx="16.151" cy="64.923" r="0.383"></circle><circle cx="12.212" cy="64.923" r="0.316"></circle><circle cx="8.271" cy="64.923" r="0.279"></circle><circle cx="39.236" cy="68.711" r="1.239"></circle><circle cx="35.487" cy="68.712" r="1.144"></circle><circle cx="31.503" cy="68.712" r="0.764"></circle><circle cx="27.665" cy="68.712" r="0.669"></circle><circle cx="23.828" cy="68.712" r="0.574"></circle><circle cx="19.989" cy="68.712" r="0.478"></circle><circle cx="16.151" cy="68.712" r="0.383"></circle><circle cx="12.212" cy="68.713" r="0.317"></circle><circle cx="39.237" cy="60.982" r="1.476"></circle></g></g>
</svg>
</g><g opacity="1" transform="rotate(0 57.3715 237.8858)">
<svg width="320.9144" height="40" x="57.3715" y="237.8858" version="1.1" preserveAspectRatio="none" viewBox="-0.36 -28 224.64000000000001 28">
  <g transform="matrix(1 0 0 1 0 0)" class="companyName"><path id="id-D6z1nYkh8" d="M24.24 0L21.76-6L8.76-6L6.28 0L-0.36 0L12.12-28L18.52-28L31.04 0L24.24 0ZM10.84-10.92L19.72-10.92L15.28-21.64L10.84-10.92Z M54.52-14.56Q56.92-13.80 58.28-12.02Q59.64-10.24 59.64-7.64L59.64-7.64Q59.64-3.96 56.78-1.98Q53.92 0 48.44 0L48.44 0L33.96 0L33.96-28L47.64-28Q52.76-28 55.50-26.04Q58.24-24.08 58.24-20.72L58.24-20.72Q58.24-18.68 57.26-17.08Q56.28-15.48 54.52-14.56L54.52-14.56ZM46.84-23.12L40.40-23.12L40.40-16.52L46.84-16.52Q49.24-16.52 50.48-17.36Q51.72-18.20 51.72-19.84L51.72-19.84Q51.72-21.48 50.48-22.30Q49.24-23.12 46.84-23.12L46.84-23.12ZM47.96-4.88Q50.52-4.88 51.82-5.72Q53.12-6.56 53.12-8.32L53.12-8.32Q53.12-11.80 47.96-11.80L47.96-11.80L40.40-11.80L40.40-4.88L47.96-4.88Z M83.76-28L90.24-28L90.24 0L83.76 0L83.76-11.48L71.04-11.48L71.04 0L64.56 0L64.56-28L71.04-28L71.04-16.96L83.76-16.96L83.76-28Z M96.88 0L96.88-28L103.36-28L103.36 0L96.88 0Z M129.28-28L135.68-28L135.68 0L130.36 0L116.40-17L116.40 0L110 0L110-28L115.36-28L129.28-11L129.28-28Z M163.24 0L160.76-6L147.76-6L145.28 0L138.64 0L151.12-28L157.52-28L170.04 0L163.24 0ZM149.84-10.92L158.72-10.92L154.28-21.64L149.84-10.92Z M195.56-28L184.68-9.92L184.68 0L178.20 0L178.20-10L167.36-28L174.24-28L181.72-15.56L189.20-28L195.56-28Z M217.48 0L215.00-6L202.00-6L199.52 0L192.88 0L205.36-28L211.76-28L224.28 0L217.48 0ZM204.08-10.92L212.96-10.92L208.52-21.64L204.08-10.92Z"/></g>
</svg>
</g></svg></svg>